REM DIRINDEX 1\2,1\3,1\4,1\5
REM DIRNAME cjc005,folder01,folder02,folder03,folder04
TITLE ""
FILE "P1Q_t_1322-1331.mp3" MP3
  TRACK 01 AUDIO
    TITLE "3:cjc005_4873"
    INDEX 01 00:00:00
  TRACK 02 AUDIO
    TITLE "0:"
    INDEX 01 00:01:05
  TRACK 03 AUDIO
    TITLE "4:cjc005_4874"
    INDEX 01 00:01:30
  TRACK 04 AUDIO
    TITLE "0:"
    INDEX 01 00:02:40
  TRACK 05 AUDIO
    TITLE "5:cjc005_4875"
    INDEX 01 00:02:63
  TRACK 06 AUDIO
    TITLE "0:"
    INDEX 01 00:06:10
  TRACK 07 AUDIO
    TITLE "3:cjc005_4876"
    INDEX 01 00:06:61
  TRACK 08 AUDIO
    TITLE "0:"
    INDEX 01 00:07:64
  TRACK 09 AUDIO
    TITLE "4:cjc005_4877"
    INDEX 01 00:08:23
  TRACK 10 AUDIO
    TITLE "0:"
    INDEX 01 00:09:34
  TRACK 11 AUDIO
    TITLE "5:cjc005_4878"
    INDEX 01 00:09:57
  TRACK 12 AUDIO
    TITLE "0:"
    INDEX 01 00:12:38
  TRACK 13 AUDIO
    TITLE "3:cjc005_4879"
    INDEX 01 00:13:16
  TRACK 14 AUDIO
    TITLE "0:"
    INDEX 01 00:14:41
  TRACK 15 AUDIO
    TITLE "4:cjc005_4880"
    INDEX 01 00:14:62
  TRACK 16 AUDIO
    TITLE "0:"
    INDEX 01 00:15:74
  TRACK 17 AUDIO
    TITLE "5:cjc005_4881"
    INDEX 01 00:16:22
  TRACK 18 AUDIO
    TITLE "0:"
    INDEX 01 00:21:04
  TRACK 19 AUDIO
    TITLE "3:cjc005_4882"
    INDEX 01 00:21:58
  TRACK 20 AUDIO
    TITLE "0:"
    INDEX 01 00:23:03
  TRACK 21 AUDIO
    TITLE "4:cjc005_4883"
    INDEX 01 00:23:22
  TRACK 22 AUDIO
    TITLE "0:"
    INDEX 01 00:24:25
  TRACK 23 AUDIO
    TITLE "5:cjc005_4884"
    INDEX 01 00:24:51
  TRACK 24 AUDIO
    TITLE "0:"
    INDEX 01 00:29:01
  TRACK 25 AUDIO
    TITLE "3:cjc005_4885"
    INDEX 01 00:29:56
  TRACK 26 AUDIO
    TITLE "0:"
    INDEX 01 00:30:67
  TRACK 27 AUDIO
    TITLE "4:cjc005_4886"
    INDEX 01 00:31:20
  TRACK 28 AUDIO
    TITLE "0:"
    INDEX 01 00:32:29
  TRACK 29 AUDIO
    TITLE "5:cjc005_4887"
    INDEX 01 00:32:54
  TRACK 30 AUDIO
    TITLE "0:"
    INDEX 01 00:37:07
  TRACK 31 AUDIO
    TITLE "3:cjc005_4888"
    INDEX 01 00:37:57
  TRACK 32 AUDIO
    TITLE "0:"
    INDEX 01 00:38:73
  TRACK 33 AUDIO
    TITLE "4:cjc005_4889"
    INDEX 01 00:39:13
  TRACK 34 AUDIO
    TITLE "0:"
    INDEX 01 00:40:24
  TRACK 35 AUDIO
    TITLE "5:cjc005_4890"
    INDEX 01 00:40:44
  TRACK 36 AUDIO
    TITLE "0:"
    INDEX 01 00:44:20
  TRACK 37 AUDIO
    TITLE "3:cjc005_4891"
    INDEX 01 00:44:73
  TRACK 38 AUDIO
    TITLE "0:"
    INDEX 01 00:46:13
  TRACK 39 AUDIO
    TITLE "4:cjc005_4892"
    INDEX 01 00:46:37
  TRACK 40 AUDIO
    TITLE "0:"
    INDEX 01 00:47:40
  TRACK 41 AUDIO
    TITLE "5:cjc005_4893"
    INDEX 01 00:47:64
  TRACK 42 AUDIO
    TITLE "0:"
    INDEX 01 00:51:40
  TRACK 43 AUDIO
    TITLE "3:cjc005_4894"
    INDEX 01 00:52:16
  TRACK 44 AUDIO
    TITLE "0:"
    INDEX 01 00:53:35
  TRACK 45 AUDIO
    TITLE "4:cjc005_4895"
    INDEX 01 00:53:55
  TRACK 46 AUDIO
    TITLE "0:"
    INDEX 01 00:54:64
  TRACK 47 AUDIO
    TITLE "5:cjc005_4896"
    INDEX 01 00:55:08
  TRACK 48 AUDIO
    TITLE "0:"
    INDEX 01 00:58:40
  TRACK 49 AUDIO
    TITLE "3:cjc005_4897"
    INDEX 01 00:59:14
  TRACK 50 AUDIO
    TITLE "0:"
    INDEX 01 01:00:17
  TRACK 51 AUDIO
    TITLE "4:cjc005_4898"
    INDEX 01 01:00:39
  TRACK 52 AUDIO
    TITLE "0:"
    INDEX 01 01:01:52
  TRACK 53 AUDIO
    TITLE "5:cjc005_4899"
    INDEX 01 01:01:74
  TRACK 54 AUDIO
    TITLE "0:"
    INDEX 01 01:05:56
  TRACK 55 AUDIO
    TITLE "3:cjc005_4900"
    INDEX 01 01:06:30
  TRACK 56 AUDIO
    TITLE "0:"
    INDEX 01 01:07:43
  TRACK 57 AUDIO
    TITLE "4:cjc005_4901"
    INDEX 01 01:07:64
  TRACK 58 AUDIO
    TITLE "0:"
    INDEX 01 01:08:74
  TRACK 59 AUDIO
    TITLE "5:cjc005_4902"
    INDEX 01 01:09:22
  TRACK 60 AUDIO
    TITLE "0:"
    INDEX 01 01:13:73
